<svg width="40" height="40" viewBox="0 0 40 40" fill="none" xmlns="http://www.w3.org/2000/svg">
<path d="M19.5 15C18.3065 15 17.1619 15.4741 16.318 16.318C15.4741 17.1619 15 18.3065 15 19.5C15 20.6935 15.4741 21.8381 16.318 22.682C17.1619 23.5259 18.3065 24 19.5 24C20.6935 24 21.8381 23.5259 22.682 22.682C23.5259 21.8381 24 20.6935 24 19.5C24 18.3065 23.5259 17.1619 22.682 16.318C21.8381 15.4741 20.6935 15 19.5 15ZM19.5 22.4225C18.7247 22.4225 17.9811 22.1145 17.4328 21.5662C16.8846 21.018 16.5766 20.2744 16.5766 19.499C16.5766 18.7237 16.8846 17.9801 17.4328 17.4318C17.9811 16.8836 18.7247 16.5756 19.5 16.5756C20.2753 16.5756 21.0189 16.8836 21.5672 17.4318C22.1154 17.9801 22.4234 18.7237 22.4234 19.499C22.4234 20.2744 22.1154 21.018 21.5672 21.5662C21.0189 22.1145 20.2753 22.4225 19.5 22.4225Z" fill="white"/>
<path d="M25 16C25.5523 16 26 15.5523 26 15C26 14.4477 25.5523 14 25 14C24.4477 14 24 14.4477 24 15C24 15.5523 24.4477 16 25 16Z" fill="white"/>
<path d="M28.5232 14.0998C28.2918 13.5032 27.9382 12.9614 27.485 12.509C27.0318 12.0567 26.489 11.7039 25.8914 11.4731C25.192 11.2109 24.4532 11.0692 23.7064 11.0539C22.7438 11.012 22.4389 11 19.998 11C17.5571 11 17.2442 11 16.2896 11.0539C15.5434 11.0684 14.8051 11.2102 14.1066 11.4731C13.5088 11.7036 12.9659 12.0564 12.5127 12.5087C12.0594 12.9611 11.7059 13.503 11.4748 14.0998C11.2122 14.798 11.0706 15.5358 11.056 16.2814C11.013 17.2415 11 17.5459 11 19.984C11 22.4212 11 22.7315 11.056 23.6866C11.071 24.4331 11.2119 25.1697 11.4748 25.8693C11.7066 26.4658 12.0604 27.0076 12.5138 27.4599C12.9671 27.9121 13.5099 28.265 14.1076 28.496C14.8047 28.7687 15.5434 28.9205 16.2916 28.9451C17.2542 28.987 17.5591 29 20 29C22.4409 29 22.7538 29 23.7084 28.9451C24.4551 28.9299 25.1939 28.7886 25.8934 28.5269C26.4909 28.2956 27.0335 27.9424 27.4866 27.49C27.9398 27.0375 28.2935 26.4958 28.5252 25.8992C28.7881 25.2006 28.929 24.4641 28.944 23.7176C28.987 22.7575 29 22.4531 29 20.015C29 17.5768 29 17.2675 28.944 16.3124C28.9324 15.5562 28.79 14.8076 28.5232 14.0998ZM27.3058 23.6128C27.2993 24.1879 27.1942 24.7577 26.9949 25.2974C26.8448 25.6855 26.615 26.0379 26.3203 26.332C26.0255 26.6261 25.6724 26.8553 25.2837 27.005C24.7491 27.203 24.1845 27.308 23.6144 27.3154C22.6648 27.3593 22.3969 27.3703 19.962 27.3703C17.5251 27.3703 17.2762 27.3703 16.3086 27.3154C15.7388 27.3084 15.1745 27.2034 14.6404 27.005C14.2502 26.8563 13.8957 26.6274 13.5997 26.3333C13.3038 26.0391 13.0729 25.6862 12.9221 25.2974C12.7257 24.7635 12.6206 24.2004 12.6113 23.6317C12.5683 22.6836 12.5583 22.4162 12.5583 19.985C12.5583 17.5529 12.5583 17.3044 12.6113 16.3373C12.6177 15.7625 12.7229 15.193 12.9221 14.6537C13.227 13.8663 13.8517 13.2465 14.6404 12.9451C15.1747 12.7476 15.7389 12.6427 16.3086 12.6347C17.2592 12.5918 17.5261 12.5798 19.962 12.5798C22.3979 12.5798 22.6478 12.5798 23.6144 12.6347C24.1845 12.6416 24.7492 12.7466 25.2837 12.9451C25.6724 13.0951 26.0255 13.3246 26.3202 13.6188C26.6149 13.913 26.8447 14.2655 26.9949 14.6537C27.1914 15.1876 27.2964 15.7507 27.3058 16.3194C27.3487 17.2685 27.3597 17.5349 27.3597 19.9671C27.3597 22.3982 27.3597 22.6597 27.3167 23.6138H27.3058V23.6128Z" fill="white"/>
<circle cx="20" cy="20" r="19.5" stroke="#FCD7AD"/>
</svg>
