<svg width="40" height="40" viewBox="0 0 40 40" fill="none" xmlns="http://www.w3.org/2000/svg">
<path d="M13 15C14.1046 15 15 14.1046 15 13C15 11.8954 14.1046 11 13 11C11.8954 11 11 11.8954 11 13C11 14.1046 11.8954 15 13 15Z" fill="white"/>
<path d="M17.1746 17.2894V28.999H20.9636V23.2084C20.9636 21.6804 21.2632 20.2006 23.2376 20.2006C25.1849 20.2006 25.209 21.9476 25.209 23.3048V29H29V22.5785C29 19.4241 28.2923 17 24.45 17C22.6053 17 21.3687 17.9714 20.8631 18.8907H20.8118V17.2894H17.1746ZM11 17.2894H14.795V28.999H11V17.2894Z" fill="white"/>
<circle cx="20" cy="20" r="19.5" stroke="#FCD7AD"/>
</svg>
