<svg width="15" height="20" viewBox="0 0 15 20" fill="none" xmlns="http://www.w3.org/2000/svg">
<path d="M7.5 0C3.41667 0 0 3.54824 0 7.87536C0 13.5006 5.66667 19.9048 7.5 19.9048C9.33333 19.9048 15 13.5006 15 7.87536C15 3.54824 11.5833 0 7.5 0ZM7.5 12.8083C4.91667 12.8083 2.83333 10.5582 2.83333 7.87536C2.83333 6.83685 3.16667 5.79834 3.75 5.01946C3.83333 4.84638 4 4.75983 4.16667 4.84638C4.33333 4.93292 4.41667 5.01946 4.41667 5.19255C4.5 5.97143 5.08333 6.49068 5.75 6.49068C6.5 6.49068 7.08333 5.88489 7.08333 5.106C7.08333 4.58675 6.83333 4.06749 6.33333 3.80787C6.16667 3.72133 6.08333 3.54824 6.08333 3.37516C6.08333 3.20207 6.25 3.02899 6.41667 3.02899C6.75 3.02899 7.16667 2.94244 7.5 2.94244C10.0833 2.94244 12.1667 5.19255 12.1667 7.87536C12.1667 10.6447 10.0833 12.8083 7.5 12.8083Z" fill="#FCD7AD"/>
</svg>
