<svg width="126" height="55" viewBox="0 0 126 55" fill="none" xmlns="http://www.w3.org/2000/svg">
<path d="M84.075 7.28261L75.7644 1.23586L75.7365 1.21929C74.8115 0.400911 73.9127 0.00497479 73.0052 0.00497479C72.0611 0.00497479 71.0855 0.427418 70.0384 1.28722L62.5061 7.29255L62.4729 7.31243C61.3106 8.12253 60.6213 9.50086 60.6213 10.9902L60.5585 21.707L44.8517 16.5714V10.957L52.4468 5.07265L59.0785 9.93159C59.7958 7.76138 60.5567 7.02915 60.5567 7.02915L61.801 6.08983L55.1309 1.23089L55.103 1.21432C54.178 0.395941 53.2792 0 52.363 0C51.4468 0 50.4572 0.422448 49.4049 1.28225L41.8796 7.29255L41.8429 7.3174C40.6894 8.1275 40 9.50583 40 11.0034V19.4059L62.9965 27L65.4276 26.1982V21.7252L65.5009 10.9753L73.096 5.09087L81.1361 11.0001V16.5913L66.9529 21.2299V25.7028L86 19.3546V11.0217C86 9.49755 85.2914 8.101 84.075 7.28261Z" fill="#FCD7AD"/>
<path d="M0 32H5.73713C7.14186 32 8.13282 32.3422 8.7865 32.9907C9.02337 33.2226 9.20944 33.4999 9.33323 33.8053C9.45702 34.1108 9.5159 34.438 9.50625 34.7667V34.7975C9.50625 36.0705 8.77086 36.825 7.78164 37.2476C9.13769 37.6891 10 38.4453 10 39.9356V39.9664C10 41.8485 8.43532 43 5.77017 43H0V32ZM4.96523 36.3836C5.90751 36.3836 6.43428 36.0705 6.43428 35.4254V35.3912C6.43428 34.7941 5.95619 34.4484 5.02955 34.4484H3.0233V36.3836H4.96523ZM5.41377 40.5481C6.35431 40.5481 6.89847 40.1871 6.89847 39.5438V39.5113C6.89847 38.9141 6.41864 38.5223 5.38074 38.5223H3.0233V40.5481H5.41377Z" fill="#FCD7AD"/>
<path d="M13 32H18.1429C19.8043 32 20.9547 32.4397 21.6855 33.1977C22.3216 33.8273 22.6481 34.676 22.6481 35.7642V35.795C22.6481 37.4769 21.7616 38.5925 20.4099 39.1742L23 43H19.5251L17.3258 39.6687H16.013V43H13V32ZM18.0025 37.2733C19.0277 37.2733 19.6182 36.7703 19.6182 35.9695V35.937C19.6182 35.073 18.9973 34.6332 17.9873 34.6332H16.013V37.2733H18.0025Z" fill="#FCD7AD"/>
<path d="M26 32H29V43H26V32Z" fill="#FCD7AD"/>
<path d="M35.7219 37.405L32.1504 32H35.6053L37.5304 35.0952L39.4708 32H42.8513L39.2815 37.3742L43 43H39.5553L37.4746 39.6841L35.3805 43H32L35.7219 37.405Z" fill="#FCD7AD"/>
<path d="M46 32H54.9206V34.5959H49.042V36.262H54.3668V38.6593H49.042V40.4058H55V43H46V32Z" fill="#FCD7AD"/>
<path d="M59 32H62.0114L66.8038 37.8174V32H70V43H67.1698L62.1962 36.9653V43H59V32Z" fill="#FCD7AD"/>
<path d="M73 32H76.3047L78.9983 36.2587L81.6954 32H85V43H81.8885V36.683L79.0018 40.9879H78.9368L76.0676 36.7104V42.9966H73.0035L73 32Z" fill="#FCD7AD"/>
<path d="M88 37.5304V37.4992C88 34.4633 90.5785 32 94.0165 32C97.4544 32 100 34.432 100 37.4696V37.4992C100 40.5367 97.4215 43 93.9835 43C90.5455 43 88 40.5729 88 37.5304ZM96.8479 37.5304V37.4992C96.8479 35.9738 95.6869 34.6443 93.9835 34.6443C92.2801 34.6443 91.1676 35.9442 91.1676 37.4696V37.4992C91.1676 39.0262 92.3287 40.3557 94.0165 40.3557C95.7043 40.3557 96.8479 39.0558 96.8479 37.5304Z" fill="#FCD7AD"/>
<path d="M103.015 32H108.15C109.811 32 110.958 32.4397 111.687 33.1977C112.324 33.8273 112.649 34.676 112.649 35.7642V35.795C112.649 37.4769 111.765 38.5925 110.416 39.1742L113 43H109.525L107.329 39.6687H106.01V43H103L103.015 32ZM108.012 37.2733C109.035 37.2733 109.625 36.7703 109.625 35.9695V35.937C109.625 35.073 109.003 34.6332 107.995 34.6332H106.025V37.2733H108.012Z" fill="#FCD7AD"/>
<path d="M116 32H124.921V34.5959H119.042V36.262H124.367V38.6593H119.042V40.4058H125V43H116V32Z" fill="#FCD7AD"/>
<path d="M3.33172 51.824H1.06843V55H0V46H3.50088C5.61103 46 6.99999 47.0815 6.99999 48.8674C7.00533 50.8214 5.32256 51.824 3.33172 51.824ZM3.42609 46.9392H1.06843V50.9002H3.38336C4.93258 50.9002 5.94759 50.1015 5.94759 48.9069C5.93691 47.6077 4.93614 46.9392 3.42609 46.9392Z" fill="#FCD7AD"/>
<path d="M19.6541 55L16.8518 51.5035H14.09V55H13V46H17.1574C19.284 46 20.6557 47.0678 20.6557 48.6875C20.6557 50.1923 19.551 51.0665 18.0301 51.3236L21 55H19.6541ZM17.0764 46.9444H14.0882V50.5951H17.058C18.5089 50.5951 19.5436 49.901 19.5436 48.7321C19.5436 47.6077 18.6322 46.9392 17.0727 46.9392L17.0764 46.9444Z" fill="#FCD7AD"/>
<path d="M31.4882 55C28.7997 55 27 52.9249 27 50.5116C27 48.0983 28.8282 46 31.5134 46C34.1987 46 36 48.0751 36 50.4867C36 52.8983 34.1718 55 31.4882 55ZM31.4882 46.9066C29.4718 46.9066 28.0334 48.4978 28.0334 50.4867C28.0334 52.4757 29.4953 54.0934 31.5134 54.0934C33.5316 54.0934 34.9666 52.4956 34.9666 50.5066C34.9666 48.5177 33.5047 46.9066 31.4882 46.9066Z" fill="#FCD7AD"/>
<path d="M46.3264 51.824H44.056V55H43V46H46.4991C48.611 46 50 47.0815 50 48.8674C50 50.8214 48.3101 51.824 46.3264 51.824ZM46.4208 46.9392H44.056V50.9002H46.3709C47.9201 50.9002 48.9351 50.1015 48.9351 48.9069C48.9316 47.6077 47.929 46.9392 46.4208 46.9392Z" fill="#FCD7AD"/>
<path d="M63.9306 46.9278H58.0882V49.9958H63.319V50.9219H58.0827V54.0739H64V55H57V46H63.9379L63.9306 46.9278Z" fill="#FCD7AD"/>
<path d="M76.6602 55L73.8553 51.5035H71.091V55H70V46H74.1613C76.2898 46 77.6628 47.0678 77.6628 48.6875C77.6628 50.1923 76.557 51.0665 75.0366 51.3236L78 55H76.6602ZM74.0802 46.9444H71.0891V50.5951H74.0617C75.5139 50.5951 76.5496 49.901 76.5496 48.7321C76.5496 47.6077 75.6374 46.9392 74.0765 46.9392L74.0802 46.9444Z" fill="#FCD7AD"/>
<path d="M88.009 55H86.991V46.9444H84V46H91V46.9392H88.009V55Z" fill="#FCD7AD"/>
<path d="M99 46V55H98V46H99Z" fill="#FCD7AD"/>
<path d="M112.927 46.9278H107.083V49.9958H112.315V50.9219H107.083V54.0739H113V55H106V46H112.94L112.927 46.9278Z" fill="#FCD7AD"/>
<path d="M122.959 50.0269C125.039 50.4517 126 51.1631 126 52.5126C126 54.0254 124.665 55 122.814 55C121.333 55 120.121 54.5385 119 53.6005L119.654 52.8758C120.628 53.7005 121.561 54.1137 122.853 54.1137C124.097 54.1137 124.934 53.5006 124.934 52.6142C124.934 51.7812 124.466 51.3264 122.506 50.9382C120.359 50.5017 119.373 49.852 119.373 48.4025C119.373 47.0031 120.667 46.0018 122.44 46.0018C123.637 45.9704 124.804 46.3529 125.719 47.0764L125.106 47.8394C124.239 47.173 123.373 46.8898 122.414 46.8898C121.2 46.8898 120.427 47.5145 120.427 48.3142C120.427 49.1522 120.907 49.6137 122.959 50.0269Z" fill="#FCD7AD"/>
</svg>
