<svg width="16" height="14" viewBox="0 0 16 14" fill="none" xmlns="http://www.w3.org/2000/svg">
<path d="M5.07286e-09 4.06732L7.74836 8.25972C7.82609 8.30176 7.9124 8.32371 8 8.32371C8.0876 8.32371 8.17391 8.30176 8.25164 8.25972L16 4.06808V11.3505C16 11.9786 15.7691 12.5829 15.3544 13.0394C14.9398 13.496 14.373 13.7701 13.7702 13.8057L13.6364 13.8095H2.36364C1.7599 13.8095 1.17903 13.5692 0.740196 13.1379C0.301358 12.7065 0.0378172 12.1168 0.00363645 11.4897L5.07286e-09 11.3505V4.06732ZM2.36364 0.19043H13.6364C14.2401 0.190389 14.821 0.430695 15.2598 0.862054C15.6986 1.29341 15.9622 1.88312 15.9964 2.51021L16 2.64942V2.78864L8 7.11647L5.07286e-09 2.78864V2.64942C-3.95249e-05 2.02133 0.230948 1.41703 0.645579 0.960488C1.06021 0.503945 1.62705 0.229773 2.22982 0.194213L2.36364 0.19043H13.6364H2.36364Z" fill="#FCD7AD"/>
</svg>
