<svg width="20" height="21" viewBox="0 0 20 21" fill="none" xmlns="http://www.w3.org/2000/svg">
<path d="M17.1667 14.0555C16.125 14.0555 15.125 13.8809 14.1917 13.5579C14.0451 13.509 13.8887 13.5027 13.739 13.5396C13.5893 13.5765 13.452 13.6552 13.3417 13.7674L11.5083 15.6881C9.14266 14.4276 7.21982 12.4132 6.01667 9.93489L7.85 8.00552C7.96037 7.89582 8.0386 7.75542 8.0755 7.60079C8.1124 7.44616 8.10644 7.28371 8.05833 7.1325C7.74221 6.12684 7.58185 5.07463 7.58333 4.01584C7.58333 3.53568 7.20833 3.14282 6.75 3.14282H3.83333C3.375 3.14282 3 3.53568 3 4.01584C3 12.2135 9.34167 18.8571 17.1667 18.8571C17.625 18.8571 18 18.4643 18 17.9841V14.9285C18 14.4484 17.625 14.0555 17.1667 14.0555ZM16.3333 11H18C18 8.91612 17.2098 6.91763 15.8033 5.44413C14.3968 3.97063 12.4891 3.14282 10.5 3.14282V4.88885C13.725 4.88885 16.3333 7.62139 16.3333 11ZM13 11H14.6667C14.6667 8.59044 12.8 6.63489 10.5 6.63489V8.38092C11.8833 8.38092 13 9.55076 13 11Z" fill="#FCD7AD"/>
</svg>
