<svg width="40" height="40" viewBox="0 0 40 40" fill="none" xmlns="http://www.w3.org/2000/svg">
<path d="M30 13.9006C29.2645 14.213 28.4641 14.4379 27.6397 14.5255C28.4956 14.0247 29.1366 13.2336 29.4424 12.3006C28.6392 12.7711 27.7593 13.101 26.8417 13.2757C26.4582 12.872 25.9944 12.5504 25.4792 12.3309C24.9639 12.1114 24.4083 11.9988 23.8469 12C21.5755 12 19.7488 13.813 19.7488 16.0379C19.7488 16.3503 19.7873 16.6627 19.8498 16.9633C16.4487 16.7882 13.4155 15.1882 11.3989 12.7385C11.0314 13.3565 10.8389 14.0602 10.8412 14.7763C10.8412 16.1775 11.5647 17.413 12.6679 18.1397C12.0178 18.1144 11.3829 17.9385 10.8148 17.626V17.6757C10.8148 19.6379 12.2233 21.2639 14.1005 21.6379C13.748 21.728 13.3854 21.7741 13.0213 21.7752C12.7545 21.7752 12.5021 21.7491 12.2473 21.7136C12.7665 23.3136 14.2783 24.4757 16.0786 24.5136C14.6701 25.6 12.9059 26.2391 10.9903 26.2391C10.6466 26.2391 10.3293 26.2272 10 26.1894C11.8171 27.3373 13.9731 28 16.2949 28C23.8325 28 27.957 21.8509 27.957 16.5136C27.957 16.3385 27.957 16.1633 27.945 15.9882C28.7429 15.413 29.4424 14.7006 30 13.9006Z" fill="white"/>
<circle cx="20" cy="20" r="19.5" stroke="#FCD7AD"/>
</svg>
