<svg width="83" height="83" viewBox="0 0 83 83" fill="none" xmlns="http://www.w3.org/2000/svg">
<g filter="url(#filter0_d)">
<g filter="url(#filter1_b)">
<circle cx="41.5" cy="37.5" r="33.5" fill="#394753" fill-opacity="0.49"/>
</g>
<path d="M33.5462 47.8125L34.0915 48.075C36.3643 49.3875 38.9096 50 41.4551 50C49.4548 50 56 43.7 56 36C56 32.325 54.4545 28.7375 51.7274 26.1125C49.0002 23.4874 45.3639 22 41.4551 22C33.4553 22 26.91 28.3 27.0009 36.0876C27.0009 38.7125 27.8191 41.2501 29.1826 43.4375L29.5462 43.9625L28.0919 49.1251L33.5462 47.8125Z" fill="#00E676"/>
<path d="M53.2343 24.8162C50.1771 21.6946 45.9509 20 41.6348 20C32.4633 20 25.09 27.4027 25.1798 36.4108C25.1798 39.2648 25.9891 42.0298 27.3379 44.527L25 53L33.722 50.7703C36.1498 52.1082 38.8473 52.7325 41.545 52.7325C50.6267 52.7325 58 45.3297 58 36.3218C58 31.9514 56.2915 27.8486 53.2344 24.8162H53.2343ZM41.6348 49.9677C39.2071 49.9677 36.7793 49.3435 34.7111 48.0948L34.1717 47.8272L28.9565 49.165L30.3052 44.0813L29.9455 43.5461C25.9891 37.2137 27.8774 28.8297 34.3515 24.9053C40.8256 20.9811 49.188 22.8541 53.1444 29.2757C57.1008 35.6973 55.2124 43.9919 48.7385 47.9163C46.6702 49.2541 44.1526 49.9676 41.6348 49.9676V49.9677ZM49.5476 40.0678L48.5585 39.6218C48.5585 39.6218 47.12 38.9975 46.2207 38.5515C46.1308 38.5515 46.0409 38.4623 45.9509 38.4623C45.6811 38.4623 45.5013 38.5515 45.3215 38.6407C45.3215 38.6407 45.2316 38.7299 43.9728 40.1569C43.8828 40.3353 43.703 40.4245 43.5232 40.4245H43.4332C43.3433 40.4245 43.1635 40.3353 43.0735 40.2462L42.6239 40.0678C41.6348 39.6218 40.7357 39.0866 40.0163 38.3731C39.8365 38.1948 39.5667 38.0164 39.3869 37.838C38.7574 37.2137 38.128 36.5001 37.6785 35.6974L37.5885 35.5191C37.4987 35.4298 37.4987 35.3407 37.4087 35.1623C37.4087 34.984 37.4087 34.8056 37.4987 34.7164C37.4987 34.7164 37.8583 34.2704 38.128 34.0029C38.3079 33.8244 38.3978 33.5569 38.5776 33.3786C38.7574 33.111 38.8474 32.7542 38.7574 32.4866C38.6676 32.0406 37.5885 29.6325 37.3189 29.0975C37.1389 28.8298 36.9592 28.7407 36.6894 28.6515H35.7003C35.5204 28.6515 35.3407 28.7407 35.1607 28.7407L35.0708 28.8298C34.891 28.9191 34.7111 29.0975 34.5313 29.1866C34.3515 29.3651 34.2615 29.5433 34.0817 29.7218C33.4523 30.5245 33.0926 31.5056 33.0926 32.4866C33.0926 33.2001 33.2724 33.9137 33.5422 34.538L33.6322 34.8056C34.4415 36.5001 35.5204 38.0164 36.9592 39.3542L37.3189 39.7109C37.5885 39.9785 37.8583 40.1569 38.0381 40.4244C39.9265 42.0299 42.0845 43.1893 44.5122 43.8137C44.782 43.9028 45.1417 43.9028 45.4115 43.992H46.3106C46.7602 43.992 47.2997 43.8137 47.6594 43.6353C47.9291 43.457 48.1089 43.457 48.2887 43.2786L48.4687 43.1001C48.6485 42.9217 48.8283 42.8326 49.0082 42.6543C49.188 42.4759 49.3678 42.2975 49.4578 42.119C49.6376 41.7623 49.7274 41.3163 49.8174 40.8705V40.2462C49.8174 40.2462 49.7274 40.1569 49.5476 40.0678Z" fill="white"/>
</g>
<defs>
<filter id="filter0_d" x="0" y="0" width="83" height="83" filterUnits="userSpaceOnUse" color-interpolation-filters="sRGB">
<feFlood flood-opacity="0" result="BackgroundImageFix"/>
<feColorMatrix in="SourceAlpha" type="matrix" values="0 0 0 0 0 0 0 0 0 0 0 0 0 0 0 0 0 0 127 0" result="hardAlpha"/>
<feOffset dy="4"/>
<feGaussianBlur stdDeviation="4"/>
<feColorMatrix type="matrix" values="0 0 0 0 0.0119097 0 0 0 0 0.0420223 0 0 0 0 0.0583333 0 0 0 0.2 0"/>
<feBlend mode="normal" in2="BackgroundImageFix" result="effect1_dropShadow"/>
<feBlend mode="normal" in="SourceGraphic" in2="effect1_dropShadow" result="shape"/>
</filter>
<filter id="filter1_b" x="4" y="0" width="75" height="75" filterUnits="userSpaceOnUse" color-interpolation-filters="sRGB">
<feFlood flood-opacity="0" result="BackgroundImageFix"/>
<feGaussianBlur in="BackgroundImage" stdDeviation="2"/>
<feComposite in2="SourceAlpha" operator="in" result="effect1_backgroundBlur"/>
<feBlend mode="normal" in="SourceGraphic" in2="effect1_backgroundBlur" result="shape"/>
</filter>
</defs>
</svg>
